<?xml version="1.0" encoding="iso-8859-1"?>
<!-- Uploaded to: SVG Repo, www.svgrepo.com, Generator: SVG Repo Mixer Tools -->
<svg fill="#000000" height="800px" width="800px" version="1.1" id="Capa_1" xmlns="http://www.w3.org/2000/svg" xmlns:xlink="http://www.w3.org/1999/xlink" 
	 viewBox="0 0 452.986 452.986" xml:space="preserve">
<g>
	<g>
		<g>
			<path d="M403.87,0H49.117C22.11,0,0,22.11,0,49.117V403.87c0,27.007,22.11,49.117,49.117,49.117H403.87
				c27.007,0,49.117-22.11,49.117-49.117V49.117C452.986,22.11,430.876,0,403.87,0z M37.21,346.923V101.836h378.61v245.087H37.21z
				 M416.165,414.245h-106.43v-39.928h106.452L416.165,414.245L416.165,414.245z"/>
			<path d="M119.157,143.769c-5.112,1.575-8.952,3.624-11.605,6.277c-2.696,2.653-4.551,6.105-5.565,10.505
				c-1.014,4.336-1.532,11.993-1.532,23.016c0,6.773-0.216,11.519-0.647,14.237c-0.604,3.645-1.639,6.644-3.149,9.06
				c-1.596,2.438-3.43,4.163-5.479,5.199c-2.157,0.992-5.263,1.618-9.448,1.834v20.471c5.263,0.28,9.146,1.381,11.67,3.365
				c2.502,1.898,4.4,5.22,5.716,9.728c0.884,3.149,1.337,9.901,1.337,20.341c0,8.995,0.496,15.596,1.445,19.694
				c0.992,4.185,2.869,7.679,5.673,10.548c2.739,2.826,6.212,4.875,10.289,6.105c4.098,1.251,9.987,1.812,17.602,1.812h4.487
				v-20.363c-6.04,0-9.987-0.431-11.799-1.23c-1.812-0.712-3.149-1.79-4.012-3.279c-0.949-1.488-1.381-4.077-1.381-7.809
				c0-2.653-0.216-8.65-0.669-18.119c-0.367-6.169-1.1-11.152-2.2-14.819c-1.186-3.732-2.783-6.816-4.918-9.448
				c-2.157-2.632-4.897-4.875-8.262-6.795c3.796-2.438,6.601-4.81,8.499-7.075c1.812-2.222,3.322-5.112,4.487-8.607
				c1.208-3.494,1.898-8.046,2.243-13.654c0.518-10.009,0.841-16.76,0.841-20.363c0-3.494,0.41-5.997,1.273-7.442
				c0.841-1.467,2.136-2.502,3.883-3.236c1.747-0.712,5.759-1.079,12.036-1.079v-20.406h-4.508
				C128.023,142.238,122.63,142.755,119.157,143.769z"/>
			<path d="M356.349,206.864c-1.532-2.416-2.567-5.414-3.149-9.06c-0.453-2.718-0.712-7.463-0.712-14.258
				c0-11.023-0.453-18.68-1.467-23.016c-1.014-4.4-2.869-7.852-5.565-10.505c-2.653-2.653-6.493-4.702-11.627-6.277
				c-3.408-1.014-8.844-1.532-16.307-1.532h-4.53v20.428c6.234,0,10.289,0.367,12.015,1.079c1.812,0.733,3.106,1.769,3.991,3.236
				c0.798,1.445,1.251,3.947,1.251,7.442c0,3.602,0.324,10.354,0.841,20.363c0.345,5.608,1.057,10.16,2.243,13.633
				c1.143,3.494,2.653,6.407,4.465,8.607c1.898,2.265,4.724,4.638,8.477,7.075c-3.343,1.941-6.04,4.163-8.218,6.795
				c-2.179,2.61-3.753,5.716-4.94,9.448c-1.143,3.624-1.855,8.585-2.243,14.798c-0.453,9.448-0.626,15.466-0.626,18.119
				c0,3.732-0.453,6.32-1.359,7.787c-0.884,1.467-2.222,2.61-4.034,3.365c-1.855,0.733-5.781,1.186-11.799,1.186v20.384h4.508
				c7.614,0,13.482-0.561,17.559-1.812c4.077-1.273,7.55-3.279,10.332-6.105c2.783-2.826,4.681-6.32,5.652-10.548
				c0.928-4.142,1.381-10.699,1.381-19.694c0-10.44,0.453-17.235,1.337-20.384c1.337-4.508,3.171-7.787,5.738-9.728
				c2.567-1.898,6.45-3.063,11.67-3.3v-20.492c-4.12-0.216-7.291-0.841-9.448-1.834
				C359.714,211.027,357.902,209.301,356.349,206.864z"/>
		</g>
	</g>
	<g>
	</g>
	<g>
	</g>
	<g>
	</g>
	<g>
	</g>
	<g>
	</g>
	<g>
	</g>
	<g>
	</g>
	<g>
	</g>
	<g>
	</g>
	<g>
	</g>
	<g>
	</g>
	<g>
	</g>
	<g>
	</g>
	<g>
	</g>
	<g>
	</g>
</g>
</svg>