<?xml version="1.0" standalone="no"?>
<!DOCTYPE svg PUBLIC "-//W3C//DTD SVG 20010904//EN"
 "http://www.w3.org/TR/2001/REC-SVG-20010904/DTD/svg10.dtd">
<svg version="1.0" xmlns="http://www.w3.org/2000/svg"
 width="79.000000pt" height="76.000000pt" viewBox="0 0 79.000000 76.000000"
 preserveAspectRatio="xMidYMid meet">

<defs>
  <mask id="cutoutMask_MQTT">
    <rect x="0.0" y="0.0" width="79.0" height="76.0" fill="white"/>
    <rect x="7.5" y="27.0" width="64" height="22" rx="3" ry="3" fill="black"/>
  </mask>
</defs>

<g mask="url(#cutoutMask_MQTT)">
<g transform="translate(0.000000,76.000000) scale(0.100000,-0.100000)"
fill="#000000" stroke="none">
<path d="M446 752 c-3 -5 1 -9 9 -9 8 0 12 4 9 9 -3 4 -7 8 -9 8 -2 0 -6 -4
-9 -8z"/>
<path d="M330 731 c-14 -27 -14 -27 18 -50 l28 -20 33 21 33 21 -38 24 c-47
28 -60 29 -74 4z m54 -32 c-4 -6 -11 -6 -20 2 -21 17 -17 31 6 19 11 -6 18
-15 14 -21z"/>
<path d="M512 718 c-15 -8 -21 -17 -16 -27 3 -9 9 -24 11 -33 4 -13 16 -18 44
-18 22 0 39 3 39 6 0 11 -43 84 -49 83 -3 0 -16 -5 -29 -11z m29 -21 c-1 -4
-1 -14 -1 -22 0 -8 -5 -15 -11 -15 -6 0 -8 9 -4 21 5 16 4 19 -5 14 -9 -5 -11
-4 -6 4 8 12 28 11 27 -2z"/>
<path d="M423 664 c-38 -22 -41 -27 -33 -49 5 -14 7 -40 5 -57 l-5 -33 13 27
c17 35 57 78 74 78 16 0 16 8 0 37 l-12 22 -42 -25z m20 -19 c-3 -9 -8 -14
-10 -11 -3 3 -2 9 2 15 9 16 15 13 8 -4z"/>
<path d="M160 650 c0 -22 5 -30 18 -30 9 0 26 -3 38 -6 19 -5 23 -1 52 59 2 4
-21 7 -52 7 -56 0 -56 0 -56 -30z m77 5 c0 -8 -4 -12 -9 -9 -4 3 -8 -1 -9 -8
0 -10 -2 -10 -6 0 -2 6 -9 10 -14 6 -5 -3 -9 -3 -9 1 0 3 10 10 23 15 12 5 22
9 23 9 0 1 1 -6 1 -14z"/>
<path d="M280 643 c-17 -29 -19 -41 -11 -53 6 -8 19 -30 28 -47 21 -41 36 -43
22 -4 -9 26 -4 51 23 107 2 4 -7 13 -18 21 -20 13 -23 11 -44 -24z m22 -30
c-6 -2 -9 -10 -6 -15 4 -7 2 -8 -5 -4 -13 9 -5 26 12 25 9 0 8 -2 -1 -6z"/>
<path d="M346 598 c-10 -39 -6 -72 12 -96 17 -21 17 -20 14 48 -4 70 -14 90
-26 48z"/>
<path d="M467 599 c-31 -18 -64 -109 -39 -109 8 0 67 109 61 115 -2 2 -12 -1
-22 -6z"/>
<path d="M497 561 l-25 -49 36 24 c24 16 47 24 67 22 26 -3 30 0 33 25 3 26 1
27 -41 27 -43 0 -45 -2 -70 -49z m46 24 c-3 -9 -8 -14 -10 -11 -3 3 -2 9 2 15
9 16 15 13 8 -4z"/>
<path d="M635 575 c0 -29 6 -39 33 -55 l32 -20 0 55 0 55 -32 0 c-31 0 -33 -2
-33 -35z m48 8 c-7 -3 -9 -11 -6 -19 3 -8 -1 -14 -9 -14 -8 0 -15 7 -15 15 0
8 4 15 9 15 5 0 6 4 3 10 -4 6 1 7 11 3 10 -4 13 -8 7 -10z"/>
<path d="M165 547 c0 -42 1 -44 54 -70 l54 -27 -24 26 c-17 18 -24 37 -24 70
0 42 -1 44 -30 44 -29 0 -30 -2 -30 -43z"/>
<path d="M97 556 c-50 -31 -49 -30 -36 -60 9 -19 17 -25 28 -20 9 3 24 9 34
11 13 4 17 16 17 49 0 24 -1 44 -2 44 -2 0 -20 -11 -41 -24z m23 -49 c-10 -9
-12 -8 -7 6 4 11 3 16 -3 12 -11 -7 -14 8 -3 19 4 3 11 -1 16 -10 6 -10 5 -20
-3 -27z m-20 2 c0 -5 -4 -9 -8 -9 -5 0 -9 7 -9 15 0 8 4 12 9 9 4 -3 8 -9 8
-15z"/>
<path d="M240 560 c0 -39 59 -115 75 -98 6 6 -56 108 -66 108 -5 0 -9 -5 -9
-10z"/>
<path d="M536 526 c-24 -11 -72 -63 -65 -71 6 -5 119 65 119 74 0 11 -24 9
-54 -3z"/>
<path d="M589 497 c-14 -12 -34 -27 -44 -32 -14 -8 -9 -10 24 -7 28 3 50 -1
68 -13 26 -17 27 -17 45 5 19 23 18 23 -19 46 -46 28 -42 28 -74 1z m66 -17
c17 -19 17 -19 -5 -15 -26 5 -40 15 -21 15 7 0 9 5 6 10 -10 17 1 11 20 -10z"/>
<path d="M97 469 c-16 -9 -16 -12 5 -50 18 -30 28 -38 43 -34 11 2 36 5 55 5
l35 1 -33 14 c-18 8 -40 28 -50 45 -18 32 -27 35 -55 19z m44 -56 c13 -16 12
-17 -3 -4 -10 7 -18 15 -18 17 0 8 8 3 21 -13z"/>
<path d="M180 449 c17 -30 110 -66 110 -41 0 8 -95 62 -110 62 -7 0 -7 -7 0
-21z"/>
<path d="M698 430 c-16 -28 -16 -32 0 -60 9 -16 19 -30 22 -30 7 0 50 76 50
88 0 7 -42 32 -53 32 -1 0 -10 -14 -19 -30z m38 -20 c1 -19 -3 -30 -12 -30 -8
0 -14 7 -14 15 0 8 5 15 10 15 6 0 9 3 9 8 -2 9 0 22 4 22 1 0 3 -13 3 -30z"/>
<path d="M525 422 l-30 -17 50 -3 c28 -2 62 1 75 7 l25 9 -28 11 c-38 15 -56
13 -92 -7z"/>
<path d="M46 373 c-15 -25 -25 -47 -24 -48 2 -1 14 -8 27 -15 21 -11 26 -9 46
16 l22 28 -19 33 c-11 18 -21 33 -23 33 -2 0 -15 -21 -29 -47z m48 -24 c-3 -5
-12 -9 -20 -9 -9 0 -12 -5 -8 -12 4 -7 3 -8 -5 -4 -6 4 -10 10 -8 14 2 4 7 15
11 26 5 15 9 16 21 6 8 -7 12 -16 9 -21z"/>
<path d="M600 381 c-42 -6 -43 -7 -17 -14 17 -4 36 -22 49 -42 22 -38 38 -44
58 -20 10 12 8 21 -10 50 -12 19 -25 34 -28 33 -4 0 -27 -4 -52 -7z m55 -30
c-3 -5 -1 -12 5 -16 5 -3 10 -12 10 -18 0 -7 -7 -3 -15 7 -13 17 -12 36 1 36
3 0 3 -4 -1 -9z"/>
<path d="M223 353 c-69 -4 -83 -18 -28 -29 36 -6 95 10 95 27 0 5 -1 8 -2 7
-2 -1 -31 -3 -65 -5z"/>
<path d="M510 349 c0 -11 100 -62 108 -54 3 3 -3 15 -15 26 -21 22 -93 43 -93
28z"/>
<path d="M112 310 c-16 -25 -13 -30 32 -54 35 -19 35 -19 64 5 16 13 37 29 47
34 13 8 6 9 -29 7 -31 -3 -55 1 -71 12 -30 20 -28 20 -43 -4z"/>
<path d="M501 252 c35 -65 49 -76 49 -41 0 30 -16 55 -52 80 l-31 23 34 -62z"/>
<path d="M530 303 c0 -4 10 -17 21 -29 14 -15 22 -37 23 -64 1 -40 21 -60 46
-45 16 10 13 95 -4 95 -7 0 -30 11 -50 25 -20 13 -36 21 -36 18z"/>
<path d="M258 268 c-54 -33 -63 -54 -20 -43 27 6 82 51 82 67 0 13 -12 8 -62
-24z"/>
<path d="M683 273 c-29 -14 -33 -22 -33 -55 0 -21 3 -38 6 -38 3 0 25 12 50
26 44 26 44 26 29 55 -9 16 -17 29 -18 28 -1 0 -17 -8 -34 -16z m27 -33 c-6
-11 -17 -20 -25 -20 -12 0 -12 4 3 19 23 26 35 26 22 1z"/>
<path d="M332 213 c-32 -63 -29 -80 8 -43 22 22 34 59 28 87 -3 12 -14 -1 -36
-44z"/>
<path d="M420 211 c0 -67 14 -87 31 -44 8 21 7 38 -2 66 -18 54 -29 46 -29
-22z"/>
<path d="M94 234 c3 -9 6 -33 6 -55 0 -37 2 -39 30 -39 25 0 30 4 30 24 0 13
2 30 5 38 3 7 -8 20 -26 31 -38 21 -53 22 -45 1z m46 -39 c0 -8 -7 -15 -15
-15 -26 0 -18 20 13 29 1 1 2 -6 2 -14z"/>
<path d="M477 214 c3 -28 0 -51 -12 -74 -17 -32 -17 -34 1 -47 26 -19 28 -17
53 28 17 30 20 43 12 49 -7 4 -23 25 -36 46 l-24 39 6 -41z m26 -85 c-8 -8
-13 -7 -18 2 -6 8 -4 10 5 4 10 -6 12 -4 6 11 -6 15 -5 17 5 7 9 -10 10 -16 2
-24z"/>
<path d="M285 219 c-16 -10 -44 -19 -62 -19 -23 0 -33 -5 -38 -21 -4 -11 -4
-23 -1 -26 10 -10 96 -9 96 2 0 6 9 27 20 48 11 20 19 37 18 36 -2 0 -16 -9
-33 -20z m-45 -49 c0 -5 -5 -10 -11 -10 -5 0 -7 5 -4 10 3 6 8 10 11 10 2 0 4
-4 4 -10z"/>
<path d="M391 212 c-1 -24 -44 -75 -71 -84 -12 -4 -13 -9 -3 -31 l12 -27 38
22 c21 12 39 22 40 22 0 1 -2 28 -7 61 -4 33 -8 50 -9 37z m-11 -82 c0 -5 -9
-14 -20 -20 -16 -9 -18 -8 -14 5 3 8 10 12 15 9 5 -3 9 0 9 5 0 6 2 11 5 11 3
0 5 -4 5 -10z"/>
<path d="M540 112 c-11 -18 -20 -34 -20 -35 0 -1 25 -2 55 -2 55 0 55 0 55 31
0 29 -3 32 -35 36 -31 4 -38 0 -55 -30z m70 -7 c0 -7 -10 -11 -22 -9 -31 3
-30 3 -23 13 8 13 45 9 45 -4z"/>
<path d="M216 89 c12 -24 19 -28 27 -20 9 9 9 14 -1 20 -11 7 -10 10 3 14 9 4
14 3 11 -2 -3 -5 4 -11 16 -14 18 -5 19 -8 8 -22 -9 -11 -15 -13 -20 -4 -6 8
-9 8 -15 -1 -13 -21 10 -33 36 -20 13 7 25 14 27 15 1 1 -5 16 -14 33 -13 28
-21 32 -55 32 l-40 0 17 -31z"/>
<path d="M396 80 c-35 -22 -33 -29 14 -57 l38 -23 16 25 c20 31 21 28 -12 52
-28 21 -30 21 -56 3z m58 -39 c-3 -3 -14 -6 -25 -8 -17 -3 -19 1 -14 18 5 16
4 19 -5 14 -9 -5 -11 -4 -6 3 5 9 14 7 31 -5 13 -10 21 -20 19 -22z"/>
</g>
</g>


  <rect x="7.5" y="27.0" width="64" height="22" rx="3" ry="3" fill="none" stroke="#000000" stroke-width="1.2"/>
  <text x="39.5" y="38.0" font-family="Arial, Helvetica, sans-serif" font-size="15" font-weight="700" fill="#000000" text-anchor="middle" dominant-baseline="middle">MQTT</text>
</svg>
