<?xml version="1.0" encoding="iso-8859-1"?>
<!-- Uploaded to: SVG Repo, www.svgrepo.com, Generator: SVG Repo Mixer Tools -->
<svg fill="#000000" height="800px" width="800px" version="1.1" id="Layer_1" xmlns="http://www.w3.org/2000/svg" xmlns:xlink="http://www.w3.org/1999/xlink" 
	 viewBox="0 0 512 512" xml:space="preserve">
<g>
	<g>
		<g>
			<path d="M493.268,12.369H18.732C8.387,12.369,0,20.756,0,31.101v321.892c0,10.345,8.387,18.732,18.732,18.732h474.537
				c10.345,0,18.732-8.387,18.732-18.732V31.101C512,20.756,503.613,12.369,493.268,12.369z M458.155,299.149
				c0,10.345-8.387,18.732-18.732,18.732H72.577c-10.345,0-18.732-8.387-18.732-18.732V84.945c0-10.345,8.387-18.732,18.732-18.732
				h366.847c10.345,0,18.732,8.387,18.732,18.732V299.149z"/>
			<path d="M366.119,177.411c-9.215-4.705-20.497-1.051-25.203,8.161l-6.892,13.492l-27.682-65.673
				c-6.052-14.356-26.108-15.489-33.668-1.763l-31.288,56.797l-28.374-28.374c-8.398-8.399-22.428-6.953-28.931,3.007
				l-45.367,69.501c-5.654,8.663-3.216,20.27,5.447,25.925c8.665,5.656,20.269,3.216,25.925-5.447l32.753-50.176l29.682,29.681
				c8.804,8.805,23.633,6.718,29.652-4.207l24.662-44.769l28.299,67.139c6.178,14.656,26.698,15.431,33.942,1.245l25.202-49.336
				C378.985,193.4,375.331,182.116,366.119,177.411z"/>
			<path d="M383.377,411.416H345.5v-8.472c0-6.897-5.591-12.488-12.488-12.488H178.988c-6.897,0-12.488,5.591-12.488,12.488v8.472
				h-37.877c-10.345,0-18.732,8.387-18.732,18.732v50.752c0,10.345,8.387,18.732,18.732,18.732h254.754
				c10.345,0,18.732-8.387,18.732-18.732v-50.752C402.109,419.803,393.722,411.416,383.377,411.416z"/>
		</g>
	</g>
</g>
</svg>