<?xml version="1.0" encoding="iso-8859-1"?>
<!-- Uploaded to: SVG Repo, www.svgrepo.com, Generator: SVG Repo Mixer Tools -->
<svg fill="#000000" height="800px" width="800px" version="1.1" id="Layer_1" xmlns="http://www.w3.org/2000/svg" xmlns:xlink="http://www.w3.org/1999/xlink" 
	 viewBox="0 0 502.4 502.4" xml:space="preserve">
<g>
	<g>
		<path d="M501.293,481.067v-147.2c0-35.201-29.866-65.067-66.133-65.067h-94.933v-56.533c0-11.733-9.6-21.333-21.333-21.333
			h-42.667L428.76,42.667h28.8c11.733,0,22.4-9.6,22.4-21.333S470.36,0,458.627,0h-412.8C34.093,0,24.493,9.6,24.493,21.333
			s9.6,21.333,21.333,21.333h28.8L227.16,190.933h-42.667c-11.733,0-21.333,9.6-21.333,21.333v57.6h-96
			c-36.267,0-66.133,28.8-66.133,65.067v146.133c0,11.733,9.6,21.333,21.333,21.333c10.667,0,20.267-9.6,20.267-19.2V336
			c0-12.8,10.667-23.467,24.533-23.467h96V374.4c0,11.733,9.6,21.333,21.333,21.333h134.4c10.667,0,20.267-9.6,21.333-20.267v-64
			h94.933c13.867,0,24.533,10.667,24.533,23.467v146.133c0,11.733,9.6,21.333,21.333,21.333S502.36,492.8,501.293,481.067z
			 M273.027,42.666h94.933l-94.933,92.8V42.666z M135.427,42.666h94.933v92.8L135.427,42.666z M297.56,354.133h-91.733v-121.6
			h91.733V354.133z"/>
	</g>
</g>
</svg>